<svg width="195" height="31" viewBox="0 0 195 31" fill="none" xmlns="http://www.w3.org/2000/svg">
<path d="M25.4 29.5H21.44L19.16 23.22H6.56L4.28 29.5H0.32L10.76 1.5H14.96L25.4 29.5ZM12.84 5.94L7.84 19.74H17.88L12.84 5.94ZM31.1478 14.9C31.1478 16.18 32.4678 17.18 35.1078 17.9C36.0945 18.1133 36.9211 18.34 37.5878 18.58C38.2811 18.7933 39.0278 19.1267 39.8278 19.58C40.6545 20.0333 41.2811 20.6333 41.7078 21.38C42.1345 22.1267 42.3478 23.0067 42.3478 24.02C42.3478 25.8333 41.6411 27.2867 40.2278 28.38C38.8145 29.4733 37.0278 30.02 34.8678 30.02C32.9478 30.02 31.2811 29.6067 29.8678 28.78C28.4811 27.9267 27.4945 26.78 26.9078 25.34L29.9078 23.62C30.2278 24.58 30.8278 25.34 31.7078 25.9C32.5878 26.46 33.6411 26.74 34.8678 26.74C36.0678 26.74 37.0278 26.5133 37.7478 26.06C38.4678 25.6067 38.8278 24.9267 38.8278 24.02C38.8278 22.66 37.5078 21.6733 34.8678 21.06C33.9878 20.82 33.3211 20.6333 32.8678 20.5C32.4145 20.3667 31.7878 20.1267 30.9878 19.78C30.2145 19.4333 29.6278 19.0733 29.2278 18.7C28.8278 18.3 28.4545 17.78 28.1078 17.14C27.7878 16.4733 27.6278 15.74 27.6278 14.94C27.6278 13.2067 28.2945 11.78 29.6278 10.66C30.9878 9.54 32.6811 8.98 34.7078 8.98C36.3345 8.98 37.7745 9.35333 39.0278 10.1C40.3078 10.82 41.2678 11.8333 41.9078 13.14L38.9878 14.78C38.2678 13.0733 36.8411 12.22 34.7078 12.22C33.6945 12.22 32.8411 12.46 32.1478 12.94C31.4811 13.42 31.1478 14.0733 31.1478 14.9ZM56.5669 9.5V12.86H51.2469V23.7C51.2469 24.6867 51.4335 25.3933 51.8069 25.82C52.2069 26.22 52.8069 26.4333 53.6069 26.46C54.4069 26.46 55.3935 26.4333 56.5669 26.38V29.5C53.5002 29.9 51.2602 29.6467 49.8469 28.74C48.4602 27.8333 47.7669 26.1533 47.7669 23.7V12.86H43.8069V9.5H47.7669V4.94L51.2469 3.9V9.5H56.5669ZM64.2841 9.5V12.86C65.4307 10.38 67.5107 9.14 70.5241 9.14V12.78C68.8174 12.7 67.3507 13.1533 66.1241 14.14C64.8974 15.1267 64.2841 16.7133 64.2841 18.9V29.5H60.8041V9.5H64.2841ZM89.7153 26.98C87.6886 29.0067 85.1953 30.02 82.2353 30.02C79.2753 30.02 76.782 29.0067 74.7553 26.98C72.7286 24.9533 71.7153 22.46 71.7153 19.5C71.7153 16.54 72.7286 14.0467 74.7553 12.02C76.782 9.99333 79.2753 8.98 82.2353 8.98C85.1953 8.98 87.6886 9.99333 89.7153 12.02C91.7686 14.0733 92.7953 16.5667 92.7953 19.5C92.7953 22.4333 91.7686 24.9267 89.7153 26.98ZM82.2353 26.62C84.2353 26.62 85.9153 25.94 87.2753 24.58C88.6353 23.22 89.3153 21.5267 89.3153 19.5C89.3153 17.4733 88.6353 15.78 87.2753 14.42C85.9153 13.06 84.2353 12.38 82.2353 12.38C80.262 12.38 78.5953 13.06 77.2353 14.42C75.8753 15.78 75.1953 17.4733 75.1953 19.5C75.1953 21.5267 75.8753 23.22 77.2353 24.58C78.5953 25.94 80.262 26.62 82.2353 26.62Z" fill="#3F0B7A"/>
<path d="M110.418 30.02C106.151 30.02 102.644 28.62 99.8978 25.82C97.1511 23.0467 95.7778 19.6067 95.7778 15.5C95.7778 11.3933 97.1511 7.95333 99.8978 5.18C102.644 2.38 106.151 0.979998 110.418 0.979998C112.951 0.979998 115.298 1.59333 117.458 2.82C119.618 4.04666 121.298 5.7 122.498 7.78L119.258 9.66C118.458 8.11333 117.258 6.88667 115.658 5.98C114.084 5.04667 112.338 4.58 110.418 4.58C107.164 4.58 104.524 5.62 102.498 7.7C100.471 9.75333 99.4578 12.3533 99.4578 15.5C99.4578 18.62 100.471 21.2067 102.498 23.26C104.524 25.34 107.164 26.38 110.418 26.38C112.338 26.38 114.084 25.9267 115.658 25.02C117.258 24.0867 118.458 22.86 119.258 21.34L122.498 23.18C121.324 25.26 119.658 26.9267 117.498 28.18C115.364 29.4067 113.004 30.02 110.418 30.02ZM143.153 26.98C141.126 29.0067 138.633 30.02 135.673 30.02C132.713 30.02 130.219 29.0067 128.193 26.98C126.166 24.9533 125.153 22.46 125.153 19.5C125.153 16.54 126.166 14.0467 128.193 12.02C130.219 9.99333 132.713 8.98 135.673 8.98C138.633 8.98 141.126 9.99333 143.153 12.02C145.206 14.0733 146.233 16.5667 146.233 19.5C146.233 22.4333 145.206 24.9267 143.153 26.98ZM135.673 26.62C137.673 26.62 139.353 25.94 140.713 24.58C142.073 23.22 142.753 21.5267 142.753 19.5C142.753 17.4733 142.073 15.78 140.713 14.42C139.353 13.06 137.673 12.38 135.673 12.38C133.699 12.38 132.033 13.06 130.673 14.42C129.313 15.78 128.633 17.4733 128.633 19.5C128.633 21.5267 129.313 23.22 130.673 24.58C132.033 25.94 133.699 26.62 135.673 26.62ZM166.895 12.94V1.5H170.375V29.5H166.895V26.06C165.189 28.7 162.669 30.02 159.335 30.02C156.509 30.02 154.122 29.0067 152.175 26.98C150.202 24.9267 149.215 22.4333 149.215 19.5C149.215 16.5933 150.202 14.1133 152.175 12.06C154.149 10.0067 156.535 8.98 159.335 8.98C162.669 8.98 165.189 10.3 166.895 12.94ZM159.775 26.66C161.802 26.66 163.495 25.98 164.855 24.62C166.215 23.2067 166.895 21.5 166.895 19.5C166.895 17.4733 166.215 15.78 164.855 14.42C163.495 13.0333 161.802 12.34 159.775 12.34C157.775 12.34 156.095 13.0333 154.735 14.42C153.375 15.78 152.695 17.4733 152.695 19.5C152.695 21.5 153.375 23.2067 154.735 24.62C156.095 25.98 157.775 26.66 159.775 26.66ZM194.848 21.1H178.088C178.434 22.86 179.248 24.2467 180.528 25.26C181.808 26.2467 183.408 26.74 185.328 26.74C187.968 26.74 189.888 25.7667 191.088 23.82L194.048 25.5C192.074 28.5133 189.141 30.02 185.248 30.02C182.101 30.02 179.514 29.0333 177.488 27.06C175.514 25.0333 174.528 22.5133 174.528 19.5C174.528 16.46 175.501 13.9533 177.448 11.98C179.394 9.98 181.914 8.98 185.008 8.98C187.941 8.98 190.328 10.02 192.168 12.1C194.034 14.1267 194.968 16.6067 194.968 19.54C194.968 20.0467 194.928 20.5667 194.848 21.1ZM185.008 12.26C183.168 12.26 181.621 12.78 180.368 13.82C179.141 14.86 178.381 16.2733 178.088 18.06H191.448C191.154 16.22 190.421 14.7933 189.248 13.78C188.074 12.7667 186.661 12.26 185.008 12.26Z" fill="#348FCF"/>
</svg>
